<?xml version="1.0" encoding="UTF-8"?>
<svg preserveAspectRatio="xMidYMid slice" width="34px" height="32px" xmlns="http://www.w3.org/2000/svg" aria-hidden="true" tabindex="-1" viewBox="0 0 21 20">
  <path d="M6.92773 6.26953C7.90169 5.29557 9.07617 4.80859 10.4512 4.80859C11.8262 4.80859 12.9863 5.29557 13.9316 6.26953C14.9056 7.21484 15.3926 8.375 15.3926 9.75C15.3926 11.125 14.9056 12.2995 13.9316 13.2734C12.9863 14.2188 11.8262 14.6914 10.4512 14.6914C9.07617 14.6914 7.90169 14.2188 6.92773 13.2734C5.98242 12.2995 5.50977 11.125 5.50977 9.75C5.50977 8.375 5.98242 7.21484 6.92773 6.26953ZM8.17383 12.0273C8.80404 12.6576 9.56315 12.9727 10.4512 12.9727C11.3392 12.9727 12.0983 12.6576 12.7285 12.0273C13.3587 11.3971 13.6738 10.638 13.6738 9.75C13.6738 8.86198 13.3587 8.10286 12.7285 7.47266C12.0983 6.84245 11.3392 6.52734 10.4512 6.52734C9.56315 6.52734 8.80404 6.84245 8.17383 7.47266C7.54362 8.10286 7.22852 8.86198 7.22852 9.75C7.22852 10.638 7.54362 11.3971 8.17383 12.0273ZM16.3809 3.82031C16.61 4.02083 16.7246 4.27865 16.7246 4.59375C16.7246 4.90885 16.61 5.18099 16.3809 5.41016C16.1803 5.63932 15.9225 5.75391 15.6074 5.75391C15.2923 5.75391 15.0202 5.63932 14.791 5.41016C14.5618 5.18099 14.4473 4.90885 14.4473 4.59375C14.4473 4.27865 14.5618 4.02083 14.791 3.82031C15.0202 3.59115 15.2923 3.47656 15.6074 3.47656C15.9225 3.47656 16.1803 3.59115 16.3809 3.82031ZM20.0332 5.79688C20.0618 6.57031 20.0762 7.88802 20.0762 9.75C20.0762 11.612 20.0618 12.9297 20.0332 13.7031C19.9473 15.4505 19.4173 16.8112 18.4434 17.7852C17.498 18.7305 16.1517 19.2318 14.4043 19.2891C13.6309 19.3464 12.3132 19.375 10.4512 19.375C8.58919 19.375 7.27148 19.3464 6.49805 19.2891C4.75065 19.2031 3.4043 18.6875 2.45898 17.7422C2.08659 17.3984 1.78581 16.9974 1.55664 16.5391C1.32747 16.0807 1.1556 15.6367 1.04102 15.207C0.955078 14.7773 0.912109 14.276 0.912109 13.7031C0.854818 12.9297 0.826172 11.612 0.826172 9.75C0.826172 7.88802 0.854818 6.55599 0.912109 5.75391C0.998047 4.03516 1.51367 2.70312 2.45898 1.75781C3.4043 0.783854 4.75065 0.253906 6.49805 0.167969C7.27148 0.139323 8.58919 0.125 10.4512 0.125C12.3132 0.125 13.6309 0.139323 14.4043 0.167969C16.1517 0.253906 17.498 0.783854 18.4434 1.75781C19.4173 2.70312 19.9473 4.04948 20.0332 5.79688ZM17.9707 15.4219C18.0566 15.1927 18.1283 14.9062 18.1855 14.5625C18.2428 14.1901 18.2858 13.7604 18.3145 13.2734C18.3431 12.7578 18.3574 12.3424 18.3574 12.0273C18.3574 11.7122 18.3574 11.2682 18.3574 10.6953C18.3574 10.1224 18.3574 9.80729 18.3574 9.75C18.3574 9.66406 18.3574 9.34896 18.3574 8.80469C18.3574 8.23177 18.3574 7.78776 18.3574 7.47266C18.3574 7.15755 18.3431 6.75651 18.3145 6.26953C18.2858 5.75391 18.2428 5.32422 18.1855 4.98047C18.1283 4.60807 18.0566 4.30729 17.9707 4.07812C17.627 3.1901 17.0111 2.57422 16.123 2.23047C15.8939 2.14453 15.5931 2.07292 15.2207 2.01562C14.877 1.95833 14.4473 1.91536 13.9316 1.88672C13.4447 1.85807 13.0436 1.84375 12.7285 1.84375C12.4421 1.84375 11.998 1.84375 11.3965 1.84375C10.8236 1.84375 10.5085 1.84375 10.4512 1.84375C10.3939 1.84375 10.0788 1.84375 9.50586 1.84375C8.93294 1.84375 8.48893 1.84375 8.17383 1.84375C7.85872 1.84375 7.44336 1.85807 6.92773 1.88672C6.44076 1.91536 6.01107 1.95833 5.63867 2.01562C5.29492 2.07292 5.00846 2.14453 4.7793 2.23047C3.89128 2.57422 3.27539 3.1901 2.93164 4.07812C2.8457 4.30729 2.77409 4.60807 2.7168 4.98047C2.65951 5.32422 2.61654 5.75391 2.58789 6.26953C2.55924 6.75651 2.54492 7.15755 2.54492 7.47266C2.54492 7.75911 2.54492 8.20312 2.54492 8.80469C2.54492 9.3776 2.54492 9.69271 2.54492 9.75C2.54492 9.86458 2.54492 10.1367 2.54492 10.5664C2.54492 10.9674 2.54492 11.3112 2.54492 11.5977C2.54492 11.8555 2.54492 12.1992 2.54492 12.6289C2.57357 13.0586 2.60221 13.431 2.63086 13.7461C2.65951 14.0326 2.70247 14.3333 2.75977 14.6484C2.81706 14.9635 2.87435 15.2214 2.93164 15.4219C3.30404 16.3099 3.91992 16.9258 4.7793 17.2695C5.00846 17.3555 5.29492 17.4271 5.63867 17.4844C6.01107 17.5417 6.44076 17.5846 6.92773 17.6133C7.44336 17.6419 7.8444 17.6562 8.13086 17.6562C8.44596 17.6562 8.88997 17.6562 9.46289 17.6562C10.0645 17.6562 10.3939 17.6562 10.4512 17.6562C10.5371 17.6562 10.8522 17.6562 11.3965 17.6562C11.9694 17.6562 12.4134 17.6562 12.7285 17.6562C13.0436 17.6562 13.4447 17.6419 13.9316 17.6133C14.4473 17.5846 14.877 17.5417 15.2207 17.4844C15.5931 17.4271 15.8939 17.3555 16.123 17.2695C17.0111 16.8971 17.627 16.2812 17.9707 15.4219Z"></path>
</svg>
