<?xml version="1.0" encoding="UTF-8"?>
<svg preserveAspectRatio="xMidYMid slice" width="19px" height="34px" xmlns="http://www.w3.org/2000/svg" aria-hidden="true" tabindex="-1" viewBox="0 0 11 19">
  <path d="M9.72243 10.375H7.08571V18.25H3.57008V10.375H0.722427V7.10547H3.57008V4.64453C3.57008 3.70703 3.74586 2.91016 4.09743 2.25391C4.44899 1.59766 4.94118 1.10547 5.57399 0.777344C6.23024 0.425781 6.98024 0.25 7.82399 0.25C8.19899 0.25 8.59743 0.273438 9.0193 0.320312C9.44118 0.34375 9.7693 0.378906 10.0037 0.425781L10.3552 0.460938V3.23828H8.94899C8.29274 3.23828 7.81227 3.41406 7.50758 3.76562C7.22633 4.09375 7.08571 4.50391 7.08571 4.99609V7.10547H10.2146L9.72243 10.375Z"></path>
</svg>
